<?xml version="1.0" encoding="UTF-8" standalone="no"?>
<!-- Created with Inkscape (http://www.inkscape.org/) -->

<svg
   xmlns:dc="http://purl.org/dc/elements/1.1/"
   xmlns:cc="http://creativecommons.org/ns#"
   xmlns:rdf="http://www.w3.org/1999/02/22-rdf-syntax-ns#"
   xmlns:svg="http://www.w3.org/2000/svg"
   xmlns="http://www.w3.org/2000/svg"
   xmlns:sodipodi="http://sodipodi.sourceforge.net/DTD/sodipodi-0.dtd"
   xmlns:inkscape="http://www.inkscape.org/namespaces/inkscape"
   width="210mm"
   height="297mm"
   viewBox="0 0 744.09448819 1052.3622047"
   id="svg2"
   version="1.1"
   inkscape:version="0.91 r13725">
  <defs
     id="defs4" />
  <sodipodi:namedview
     id="base"
     pagecolor="#ffffff"
     bordercolor="#666666"
     borderopacity="1.0"
     inkscape:pageopacity="0.0"
     inkscape:pageshadow="2"
     inkscape:zoom="0.35"
     inkscape:cx="375"
     inkscape:cy="520"
     inkscape:document-units="px"
     inkscape:current-layer="flowRoot3336"
     showgrid="false"
     inkscape:window-width="2505"
     inkscape:window-height="1416"
     inkscape:window-x="55"
     inkscape:window-y="24"
     inkscape:window-maximized="1" />
  <metadata
     id="metadata7">
    <rdf:RDF>
      <cc:Work
         rdf:about="">
        <dc:format>image/svg+xml</dc:format>
        <dc:type
           rdf:resource="http://purl.org/dc/dcmitype/StillImage" />
        <dc:title></dc:title>
      </cc:Work>
    </rdf:RDF>
  </metadata>
  <g
     inkscape:label="Layer 1"
     inkscape:groupmode="layer"
     id="layer1">
    <g
       style="font-style:normal;font-weight:normal;font-size:40px;line-height:125%;font-family:sans-serif;letter-spacing:0px;word-spacing:0px;fill:#000000;fill-opacity:1;stroke:none;stroke-width:1px;stroke-linecap:butt;stroke-linejoin:miter;stroke-opacity:1"
       id="flowRoot3336">
      <path
         d="m 21.068359,349.78133 76.167764,0 0,13.71664 -59.869151,0 0,35.66332 57.367882,0 0,13.71665 -57.367882,0 0,43.6512 61.321505,0 0,13.71668 -77.620118,0 0,-120.46449 z"
         style="letter-spacing:0.06px"
         id="path3345"
         inkscape:connector-curvature="0" />
      <path
         d="m 200.35889,379.87729 -32.67791,43.97397 34.37231,46.39456 -17.5089,0 -26.3037,-35.50192 -26.30369,35.50192 -17.50891,0 35.09849,-47.28214 -32.1131,-43.08639 17.5089,0 23.9638,32.1938 23.9638,-32.1938 17.50891,0 z"
         style="letter-spacing:0.06px"
         id="path3347"
         inkscape:connector-curvature="0" />
      <path
         d="m 264.34884,424.81947 q -17.99302,0 -24.93203,4.11502 -6.93901,4.11498 -6.93901,14.03937 0,7.90728 5.16391,12.58707 5.2446,4.5991 14.20077,4.5991 12.34499,0 19.76812,-8.71408 7.50381,-8.79481 7.50381,-23.31835 l 0,-3.30813 -14.76557,0 z m 29.61183,-6.13213 0,51.55848 -14.84626,0 0,-13.71668 q -5.08322,8.23 -12.66773,12.18362 -7.5845,3.87294 -18.55782,3.87294 -13.87803,0 -22.10802,-7.74588 -8.1493,-7.82655 -8.1493,-20.8977 0,-15.24971 10.16645,-22.99558 10.24715,-7.74588 30.49939,-7.74588 l 20.81703,0 0,-1.45234 q 0,-10.24715 -6.77764,-15.81447 -6.69695,-5.64805 -18.88056,-5.64805 -7.74588,0 -15.08832,1.85579 -7.34245,1.85579 -14.12009,5.56732 l 0,-13.71664 q 8.14931,-3.14677 15.8145,-4.67979 7.66518,-1.61374 14.92694,-1.61374 19.60675,0 29.28909,10.16647 9.68234,10.16647 9.68234,30.82213 z"
         style="letter-spacing:0.06px"
         id="path3349"
         inkscape:connector-curvature="0" />
      <path
         d="m 395.22764,397.22483 q 5.56736,-10.00511 13.31323,-14.76558 7.74588,-4.76051 18.23507,-4.76051 14.12009,0 21.78529,9.92442 7.66519,9.84371 7.66519,28.07878 l 0,54.54388 -14.92694,0 0,-54.05975 q 0,-12.99048 -4.59911,-19.28401 -4.59911,-6.29353 -14.03941,-6.29353 -11.53813,0 -18.23507,7.66519 -6.69698,7.66519 -6.69698,20.89775 l 0,51.07435 -14.92694,0 0,-54.05975 q 0,-13.07116 -4.5991,-19.28401 -4.59911,-6.29353 -14.20077,-6.29353 -11.37677,0 -18.07371,7.74587 -6.69695,7.6652 -6.69695,20.81707 l 0,51.07435 -14.92694,0 0,-90.36853 14.92694,0 0,14.03937 q 5.08323,-8.31065 12.18363,-12.2643 7.10039,-3.95362 16.86341,-3.95362 9.84371,0 16.70205,5.00255 6.93898,5.00256 10.24711,14.52354 z"
         style="letter-spacing:0.06px"
         id="path3351"
         inkscape:connector-curvature="0" />
      <path
         d="m 500.52894,456.69054 0,47.92759 -14.92694,0 0,-124.74084 14.92694,0 0,13.71664 q 4.67979,-8.06864 11.78017,-11.94157 7.18107,-3.95362 17.10549,-3.95362 16.45997,0 26.70712,13.07119 10.32783,13.07115 10.32783,34.37231 0,21.30115 -10.32783,34.3723 -10.24715,13.07116 -26.70712,13.07116 -9.92442,0 -17.10549,-3.87294 -7.10038,-3.95362 -11.78017,-12.02222 z m 50.50954,-31.5483 q 0,-16.37932 -6.77762,-25.65822 -6.69698,-9.35958 -18.47715,-9.35958 -11.78017,0 -18.55784,9.35958 -6.69693,9.2789 -6.69693,25.65822 0,16.37928 6.69693,25.7389 6.77767,9.27889 18.55784,9.27889 11.78017,0 18.47715,-9.27889 6.77762,-9.35962 6.77762,-25.7389 z"
         style="letter-spacing:0.06px"
         id="path3353"
         inkscape:connector-curvature="0" />
      <path
         d="m 591.30674,344.69809 14.84626,0 0,125.54773 -14.84626,0 0,-125.54773 z"
         style="letter-spacing:0.06px"
         id="path3355"
         inkscape:connector-curvature="0" />
      <path
         d="m 714.68171,421.34998 0,7.26175 -68.26053,0 q 0.96825,15.33039 9.19825,23.39898 8.31069,7.98796 23.07622,7.98796 8.55277,0 16.54069,-2.09783 8.06864,-2.09787 15.97587,-6.29353 l 0,14.03941 q -7.98795,3.38881 -16.37932,5.16391 -8.39136,1.77507 -17.02477,1.77507 -21.62388,0 -34.29162,-12.58703 -12.58707,-12.58706 -12.58707,-34.04958 0,-22.18869 11.94158,-35.17916 12.02225,-13.07119 32.35515,-13.07119 18.23507,0 28.80499,11.78021 10.65056,11.69949 10.65056,31.87103 z m -14.84626,-4.35706 q -0.16153,-12.18362 -6.8583,-19.44537 -6.6163,-7.26175 -17.58962,-7.26175 -12.42567,0 -19.9295,7.01971 -7.42311,7.0197 -8.55272,19.76809 l 52.93014,-0.0806 z"
         style="letter-spacing:0.06px"
         id="path3357"
         inkscape:connector-curvature="0" />
    </g>
  </g>
</svg>
